<svg width="1200" height="300" viewBox="0 0 1200 300" fill="none" xmlns="http://www.w3.org/2000/svg">
<rect width="1200" height="300" fill="#335338"/>
<path d="M94.104 191.28C87.0213 191.28 81.3467 188.805 77.08 183.856C72.8133 178.907 70.68 172.208 70.68 163.76V145.84C70.68 137.477 72.8133 130.821 77.08 125.872C81.3467 120.837 87.0213 118.32 94.104 118.32C99.9067 118.32 104.472 120.027 107.8 123.44C111.128 126.768 112.792 131.461 112.792 137.52L108.312 133.04H112.792L112.152 115.76V96.56H131.352V190H112.792V176.56H108.312L112.792 172.08C112.792 178.139 111.128 182.875 107.8 186.288C104.472 189.616 99.9067 191.28 94.104 191.28ZM101.016 174.64C104.515 174.64 107.245 173.659 109.208 171.696C111.171 169.648 112.152 166.789 112.152 163.12V146.48C112.152 142.811 111.171 139.995 109.208 138.032C107.245 135.984 104.515 134.96 101.016 134.96C97.432 134.96 94.6587 135.984 92.696 138.032C90.8187 139.995 89.88 142.811 89.88 146.48V163.12C89.88 166.789 90.8187 169.648 92.696 171.696C94.6587 173.659 97.432 174.64 101.016 174.64ZM178.15 191.28C171.921 191.28 166.502 190.128 161.894 187.824C157.286 185.435 153.702 182.149 151.142 177.968C148.667 173.701 147.43 168.752 147.43 163.12V146.48C147.43 140.848 148.667 135.941 151.142 131.76C153.702 127.493 157.286 124.208 161.894 121.904C166.502 119.515 171.921 118.32 178.15 118.32C184.465 118.32 189.883 119.515 194.406 121.904C199.014 124.208 202.555 127.493 205.03 131.76C207.59 135.941 208.87 140.848 208.87 146.48V163.12C208.87 168.752 207.59 173.701 205.03 177.968C202.555 182.149 199.014 185.435 194.406 187.824C189.883 190.128 184.465 191.28 178.15 191.28ZM178.15 174.64C181.905 174.64 184.763 173.659 186.726 171.696C188.689 169.648 189.67 166.789 189.67 163.12V146.48C189.67 142.725 188.689 139.867 186.726 137.904C184.763 135.941 181.905 134.96 178.15 134.96C174.481 134.96 171.622 135.941 169.574 137.904C167.611 139.867 166.63 142.725 166.63 146.48V163.12C166.63 166.789 167.611 169.648 169.574 171.696C171.622 173.659 174.481 174.64 178.15 174.64ZM262.58 190C255.412 190 249.78 187.952 245.684 183.856C241.588 179.76 239.54 174.128 239.54 166.96V136.88H220.98V119.6H239.54V99.76H258.74V119.6H284.98V136.88H258.74V166.96C258.74 170.8 260.66 172.72 264.5 172.72H283.7V190H262.58ZM318.21 190V145.2H299.522V127.92H318.21V118.32C318.21 111.749 320.429 106.501 324.866 102.576C329.389 98.5653 335.277 96.56 342.53 96.56H363.138V113.2H343.17C341.463 113.2 340.055 113.755 338.946 114.864C337.922 115.888 337.41 117.253 337.41 118.96V127.92H363.138V145.2H337.41V190H318.21ZM378.96 190V172.592H403.28V136.88H382.16V119.6H421.2V172.592H441.68V190H378.96ZM410.96 108.464C407.461 108.464 404.645 107.568 402.512 105.776C400.464 103.984 399.44 101.552 399.44 98.48C399.44 95.408 400.464 92.976 402.512 91.184C404.645 89.392 407.461 88.496 410.96 88.496C414.459 88.496 417.232 89.392 419.28 91.184C421.413 92.976 422.48 95.408 422.48 98.48C422.48 101.552 421.413 103.984 419.28 105.776C417.232 107.568 414.459 108.464 410.96 108.464ZM496.67 190C491.721 190 487.369 188.976 483.614 186.928C479.859 184.795 476.915 181.851 474.782 178.096C472.734 174.341 471.71 169.989 471.71 165.04V113.84H449.95V96.56H490.91V165.04C490.91 167.344 491.593 169.221 492.958 170.672C494.409 172.037 496.286 172.72 498.59 172.72H519.07V190H496.67ZM562.028 191.28C555.799 191.28 550.337 190.128 545.644 187.824C541.036 185.435 537.452 182.149 534.892 177.968C532.417 173.701 531.18 168.752 531.18 163.12V146.48C531.18 140.848 532.417 135.941 534.892 131.76C537.452 127.493 541.036 124.208 545.644 121.904C550.337 119.515 555.799 118.32 562.028 118.32C568.257 118.32 573.633 119.515 578.156 121.904C582.764 124.208 586.305 127.493 588.78 131.76C591.34 135.941 592.62 140.848 592.62 146.48V159.28H549.484V163.12C549.484 167.557 550.551 170.928 552.684 173.232C554.817 175.451 558.017 176.56 562.284 176.56C565.271 176.56 567.66 176.048 569.452 175.024C571.329 174 572.567 172.592 573.164 170.8H591.98C590.444 176.944 586.945 181.893 581.484 185.648C576.108 189.403 569.623 191.28 562.028 191.28ZM574.316 149.424V146.224C574.316 141.872 573.292 138.544 571.244 136.24C569.281 133.936 566.209 132.784 562.028 132.784C557.847 132.784 554.689 133.979 552.556 136.368C550.508 138.757 549.484 142.128 549.484 146.48V148.4L575.596 148.144L574.316 149.424ZM635.706 191.28C629.903 191.28 624.826 190.384 620.474 188.592C616.122 186.715 612.709 184.155 610.234 180.912C607.845 177.669 606.65 173.872 606.65 169.52H625.85C625.85 171.568 626.746 173.232 628.538 174.512C630.415 175.707 632.805 176.304 635.706 176.304H641.338C644.837 176.304 647.482 175.664 649.274 174.384C651.151 173.104 652.09 171.312 652.09 169.008C652.09 166.875 651.279 165.253 649.658 164.144C648.037 162.949 645.519 162.139 642.106 161.712L633.914 160.688C625.125 159.579 618.725 157.445 614.714 154.288C610.703 151.131 608.698 146.309 608.698 139.824C608.698 132.997 611.045 127.707 615.738 123.952C620.431 120.197 627.301 118.32 636.346 118.32H641.21C649.829 118.32 656.698 120.197 661.818 123.952C666.938 127.707 669.498 132.741 669.498 139.056H650.298C650.298 137.349 649.445 135.984 647.738 134.96C646.117 133.851 643.941 133.296 641.21 133.296H636.346C633.189 133.296 630.885 133.851 629.434 134.96C627.983 135.984 627.258 137.563 627.258 139.696C627.258 141.659 627.898 143.152 629.178 144.176C630.543 145.2 632.677 145.925 635.578 146.352L644.41 147.504C653.285 148.613 659.855 150.832 664.122 154.16C668.474 157.488 670.65 162.437 670.65 169.008C670.65 176.176 668.175 181.68 663.226 185.52C658.277 189.36 650.981 191.28 641.338 191.28H635.706Z" fill="white"/>
</svg>
